<mxfile host="app.diagrams.net" agent="Mozilla/5.0 (Macintosh; Intel Mac OS X 10_15_7) AppleWebKit/605.1.15 (KHTML, like Gecko) Version/17.5 Safari/605.1.15" version="24.7.6">
  <diagram name="Page-1" id="dMoMHk8tGtqV6PttAARK">
    <mxGraphModel dx="569" dy="1219" grid="1" gridSize="10" guides="1" tooltips="1" connect="1" arrows="1" fold="1" page="1" pageScale="1" pageWidth="1169" pageHeight="826" math="0" shadow="0">
      <root>
        <mxCell id="0" />
        <mxCell id="1" parent="0" />
        <mxCell id="omD_EAOpqNVqfxOUHVzq-19" value="" style="rounded=0;whiteSpace=wrap;html=1;" vertex="1" parent="1">
          <mxGeometry x="322.5" y="-70" width="230" height="310" as="geometry" />
        </mxCell>
        <mxCell id="omD_EAOpqNVqfxOUHVzq-20" value="Patient" style="text;html=1;align=center;verticalAlign=middle;resizable=0;points=[];autosize=1;strokeColor=none;fillColor=none;" vertex="1" parent="1">
          <mxGeometry x="407.5" y="-60" width="60" height="30" as="geometry" />
        </mxCell>
        <mxCell id="omD_EAOpqNVqfxOUHVzq-21" value="" style="endArrow=none;html=1;rounded=0;entryX=0.997;entryY=0.228;entryDx=0;entryDy=0;entryPerimeter=0;" edge="1" parent="1">
          <mxGeometry width="50" height="50" relative="1" as="geometry">
            <mxPoint x="323.19000000000005" y="-20" as="sourcePoint" />
            <mxPoint x="552.5" y="-19.32000000000005" as="targetPoint" />
          </mxGeometry>
        </mxCell>
        <mxCell id="omD_EAOpqNVqfxOUHVzq-22" value="+ patientID : string" style="text;html=1;align=center;verticalAlign=middle;resizable=0;points=[];autosize=1;strokeColor=none;fillColor=none;" vertex="1" parent="1">
          <mxGeometry x="317.5" y="-22" width="120" height="30" as="geometry" />
        </mxCell>
        <mxCell id="omD_EAOpqNVqfxOUHVzq-23" value="+ firstName : string" style="text;html=1;align=center;verticalAlign=middle;resizable=0;points=[];autosize=1;strokeColor=none;fillColor=none;" vertex="1" parent="1">
          <mxGeometry x="322.5" width="120" height="30" as="geometry" />
        </mxCell>
        <mxCell id="omD_EAOpqNVqfxOUHVzq-24" value="+ lastName : string" style="text;html=1;align=center;verticalAlign=middle;resizable=0;points=[];autosize=1;strokeColor=none;fillColor=none;" vertex="1" parent="1">
          <mxGeometry x="322.5" y="20" width="120" height="30" as="geometry" />
        </mxCell>
        <mxCell id="omD_EAOpqNVqfxOUHVzq-25" value="+ age: number" style="text;html=1;align=center;verticalAlign=middle;resizable=0;points=[];autosize=1;strokeColor=none;fillColor=none;" vertex="1" parent="1">
          <mxGeometry x="322.5" y="43" width="100" height="30" as="geometry" />
        </mxCell>
        <mxCell id="omD_EAOpqNVqfxOUHVzq-26" value="+ sex: string" style="text;html=1;align=center;verticalAlign=middle;resizable=0;points=[];autosize=1;strokeColor=none;fillColor=none;" vertex="1" parent="1">
          <mxGeometry x="317.5" y="58" width="90" height="30" as="geometry" />
        </mxCell>
        <mxCell id="omD_EAOpqNVqfxOUHVzq-27" value="+ address: string" style="text;html=1;align=center;verticalAlign=middle;resizable=0;points=[];autosize=1;strokeColor=none;fillColor=none;" vertex="1" parent="1">
          <mxGeometry x="317.5" y="80" width="110" height="30" as="geometry" />
        </mxCell>
        <mxCell id="omD_EAOpqNVqfxOUHVzq-28" value="+ email: string" style="text;html=1;align=center;verticalAlign=middle;resizable=0;points=[];autosize=1;strokeColor=none;fillColor=none;" vertex="1" parent="1">
          <mxGeometry x="317.5" y="100" width="100" height="30" as="geometry" />
        </mxCell>
        <mxCell id="omD_EAOpqNVqfxOUHVzq-29" value="+ phone: string" style="text;html=1;align=center;verticalAlign=middle;resizable=0;points=[];autosize=1;strokeColor=none;fillColor=none;" vertex="1" parent="1">
          <mxGeometry x="317.5" y="120" width="100" height="30" as="geometry" />
        </mxCell>
        <mxCell id="omD_EAOpqNVqfxOUHVzq-30" value="" style="endArrow=none;html=1;rounded=0;entryX=0.997;entryY=0.228;entryDx=0;entryDy=0;entryPerimeter=0;" edge="1" parent="1">
          <mxGeometry width="50" height="50" relative="1" as="geometry">
            <mxPoint x="322.5" y="160" as="sourcePoint" />
            <mxPoint x="551.81" y="160.67999999999995" as="targetPoint" />
          </mxGeometry>
        </mxCell>
        <mxCell id="omD_EAOpqNVqfxOUHVzq-31" value="- createPatient() : &amp;nbsp;string" style="text;html=1;align=center;verticalAlign=middle;resizable=0;points=[];autosize=1;strokeColor=none;fillColor=none;" vertex="1" parent="1">
          <mxGeometry x="322.5" y="160" width="150" height="30" as="geometry" />
        </mxCell>
        <mxCell id="omD_EAOpqNVqfxOUHVzq-32" value="- updatePatient() : &amp;nbsp;string" style="text;html=1;align=center;verticalAlign=middle;resizable=0;points=[];autosize=1;strokeColor=none;fillColor=none;" vertex="1" parent="1">
          <mxGeometry x="317.5" y="180" width="160" height="30" as="geometry" />
        </mxCell>
        <mxCell id="omD_EAOpqNVqfxOUHVzq-33" value="- deletePatient() : &amp;nbsp;void" style="text;html=1;align=center;verticalAlign=middle;resizable=0;points=[];autosize=1;strokeColor=none;fillColor=none;" vertex="1" parent="1">
          <mxGeometry x="327.5" y="200" width="140" height="30" as="geometry" />
        </mxCell>
        <mxCell id="omD_EAOpqNVqfxOUHVzq-115" value="" style="rounded=0;whiteSpace=wrap;html=1;" vertex="1" parent="1">
          <mxGeometry x="535" y="410" width="230" height="140" as="geometry" />
        </mxCell>
        <mxCell id="omD_EAOpqNVqfxOUHVzq-116" value="Admin" style="text;html=1;align=center;verticalAlign=middle;resizable=0;points=[];autosize=1;strokeColor=none;fillColor=none;" vertex="1" parent="1">
          <mxGeometry x="620" y="420" width="60" height="30" as="geometry" />
        </mxCell>
        <mxCell id="omD_EAOpqNVqfxOUHVzq-117" value="" style="endArrow=none;html=1;rounded=0;entryX=0.997;entryY=0.228;entryDx=0;entryDy=0;entryPerimeter=0;" edge="1" parent="1">
          <mxGeometry width="50" height="50" relative="1" as="geometry">
            <mxPoint x="535.69" y="460" as="sourcePoint" />
            <mxPoint x="765" y="460.67999999999984" as="targetPoint" />
          </mxGeometry>
        </mxCell>
        <mxCell id="omD_EAOpqNVqfxOUHVzq-118" value="+ adminID : string" style="text;html=1;align=center;verticalAlign=middle;resizable=0;points=[];autosize=1;strokeColor=none;fillColor=none;" vertex="1" parent="1">
          <mxGeometry x="525" y="458" width="120" height="30" as="geometry" />
        </mxCell>
        <mxCell id="omD_EAOpqNVqfxOUHVzq-119" value="+ fullName : string" style="text;html=1;align=center;verticalAlign=middle;resizable=0;points=[];autosize=1;strokeColor=none;fillColor=none;" vertex="1" parent="1">
          <mxGeometry x="525" y="480" width="120" height="30" as="geometry" />
        </mxCell>
        <mxCell id="omD_EAOpqNVqfxOUHVzq-122" value="" style="endArrow=none;html=1;rounded=0;entryX=0.997;entryY=0.228;entryDx=0;entryDy=0;entryPerimeter=0;" edge="1" parent="1">
          <mxGeometry width="50" height="50" relative="1" as="geometry">
            <mxPoint x="535" y="510" as="sourcePoint" />
            <mxPoint x="764.31" y="510.67999999999984" as="targetPoint" />
          </mxGeometry>
        </mxCell>
        <mxCell id="omD_EAOpqNVqfxOUHVzq-123" value="- book() : &amp;nbsp;void" style="text;html=1;align=center;verticalAlign=middle;resizable=0;points=[];autosize=1;strokeColor=none;fillColor=none;" vertex="1" parent="1">
          <mxGeometry x="530" y="505" width="100" height="30" as="geometry" />
        </mxCell>
        <mxCell id="omD_EAOpqNVqfxOUHVzq-127" value="" style="group" vertex="1" connectable="0" parent="1">
          <mxGeometry x="700" y="-70" width="240" height="330" as="geometry" />
        </mxCell>
        <mxCell id="omD_EAOpqNVqfxOUHVzq-1" value="" style="rounded=0;whiteSpace=wrap;html=1;" vertex="1" parent="omD_EAOpqNVqfxOUHVzq-127">
          <mxGeometry x="10" width="230" height="330" as="geometry" />
        </mxCell>
        <mxCell id="omD_EAOpqNVqfxOUHVzq-3" value="Doctor" style="text;html=1;align=center;verticalAlign=middle;resizable=0;points=[];autosize=1;strokeColor=none;fillColor=none;" vertex="1" parent="omD_EAOpqNVqfxOUHVzq-127">
          <mxGeometry x="95" y="10" width="60" height="30" as="geometry" />
        </mxCell>
        <mxCell id="omD_EAOpqNVqfxOUHVzq-4" value="" style="endArrow=none;html=1;rounded=0;entryX=0.997;entryY=0.228;entryDx=0;entryDy=0;entryPerimeter=0;" edge="1" parent="omD_EAOpqNVqfxOUHVzq-127">
          <mxGeometry width="50" height="50" relative="1" as="geometry">
            <mxPoint x="10.689999999999998" y="50" as="sourcePoint" />
            <mxPoint x="240" y="50.67999999999995" as="targetPoint" />
          </mxGeometry>
        </mxCell>
        <mxCell id="omD_EAOpqNVqfxOUHVzq-5" value="+ docID : string" style="text;html=1;align=center;verticalAlign=middle;resizable=0;points=[];autosize=1;strokeColor=none;fillColor=none;" vertex="1" parent="omD_EAOpqNVqfxOUHVzq-127">
          <mxGeometry x="10" y="48" width="100" height="30" as="geometry" />
        </mxCell>
        <mxCell id="omD_EAOpqNVqfxOUHVzq-6" value="+ firstName : string" style="text;html=1;align=center;verticalAlign=middle;resizable=0;points=[];autosize=1;strokeColor=none;fillColor=none;" vertex="1" parent="omD_EAOpqNVqfxOUHVzq-127">
          <mxGeometry x="10" y="70" width="120" height="30" as="geometry" />
        </mxCell>
        <mxCell id="omD_EAOpqNVqfxOUHVzq-7" value="+ lastName : string" style="text;html=1;align=center;verticalAlign=middle;resizable=0;points=[];autosize=1;strokeColor=none;fillColor=none;" vertex="1" parent="omD_EAOpqNVqfxOUHVzq-127">
          <mxGeometry x="10" y="90" width="120" height="30" as="geometry" />
        </mxCell>
        <mxCell id="omD_EAOpqNVqfxOUHVzq-8" value="+ age: number" style="text;html=1;align=center;verticalAlign=middle;resizable=0;points=[];autosize=1;strokeColor=none;fillColor=none;" vertex="1" parent="omD_EAOpqNVqfxOUHVzq-127">
          <mxGeometry x="10" y="110" width="100" height="30" as="geometry" />
        </mxCell>
        <mxCell id="omD_EAOpqNVqfxOUHVzq-9" value="+ sex: string" style="text;html=1;align=center;verticalAlign=middle;resizable=0;points=[];autosize=1;strokeColor=none;fillColor=none;" vertex="1" parent="omD_EAOpqNVqfxOUHVzq-127">
          <mxGeometry x="5" y="130" width="90" height="30" as="geometry" />
        </mxCell>
        <mxCell id="omD_EAOpqNVqfxOUHVzq-10" value="+ address: string" style="text;html=1;align=center;verticalAlign=middle;resizable=0;points=[];autosize=1;strokeColor=none;fillColor=none;" vertex="1" parent="omD_EAOpqNVqfxOUHVzq-127">
          <mxGeometry x="5" y="150" width="110" height="30" as="geometry" />
        </mxCell>
        <mxCell id="omD_EAOpqNVqfxOUHVzq-11" value="+ email: string" style="text;html=1;align=center;verticalAlign=middle;resizable=0;points=[];autosize=1;strokeColor=none;fillColor=none;" vertex="1" parent="omD_EAOpqNVqfxOUHVzq-127">
          <mxGeometry x="5" y="170" width="100" height="30" as="geometry" />
        </mxCell>
        <mxCell id="omD_EAOpqNVqfxOUHVzq-13" value="+ phone: string" style="text;html=1;align=center;verticalAlign=middle;resizable=0;points=[];autosize=1;strokeColor=none;fillColor=none;" vertex="1" parent="omD_EAOpqNVqfxOUHVzq-127">
          <mxGeometry x="5" y="190" width="100" height="30" as="geometry" />
        </mxCell>
        <mxCell id="omD_EAOpqNVqfxOUHVzq-15" value="" style="endArrow=none;html=1;rounded=0;entryX=0.997;entryY=0.228;entryDx=0;entryDy=0;entryPerimeter=0;" edge="1" parent="omD_EAOpqNVqfxOUHVzq-127">
          <mxGeometry width="50" height="50" relative="1" as="geometry">
            <mxPoint x="10" y="284.65999999999997" as="sourcePoint" />
            <mxPoint x="239.30999999999995" y="285.3399999999999" as="targetPoint" />
          </mxGeometry>
        </mxCell>
        <mxCell id="omD_EAOpqNVqfxOUHVzq-16" value="- hireDoctor() : &amp;nbsp;string" style="text;html=1;align=center;verticalAlign=middle;resizable=0;points=[];autosize=1;strokeColor=none;fillColor=none;" vertex="1" parent="omD_EAOpqNVqfxOUHVzq-127">
          <mxGeometry x="10" y="280" width="140" height="30" as="geometry" />
        </mxCell>
        <mxCell id="omD_EAOpqNVqfxOUHVzq-17" value="- fireDoctor() : &amp;nbsp;string" style="text;html=1;align=center;verticalAlign=middle;resizable=0;points=[];autosize=1;strokeColor=none;fillColor=none;" vertex="1" parent="omD_EAOpqNVqfxOUHVzq-127">
          <mxGeometry x="10" y="300" width="130" height="30" as="geometry" />
        </mxCell>
        <mxCell id="omD_EAOpqNVqfxOUHVzq-34" value="+ profession: string" style="text;html=1;align=center;verticalAlign=middle;resizable=0;points=[];autosize=1;strokeColor=none;fillColor=none;" vertex="1" parent="omD_EAOpqNVqfxOUHVzq-127">
          <mxGeometry y="210" width="130" height="30" as="geometry" />
        </mxCell>
        <mxCell id="omD_EAOpqNVqfxOUHVzq-36" value="+ workingRecord: float" style="text;html=1;align=center;verticalAlign=middle;resizable=0;points=[];autosize=1;strokeColor=none;fillColor=none;" vertex="1" parent="omD_EAOpqNVqfxOUHVzq-127">
          <mxGeometry x="5" y="230" width="140" height="30" as="geometry" />
        </mxCell>
        <mxCell id="omD_EAOpqNVqfxOUHVzq-37" value="+ PRecID: string" style="text;html=1;align=center;verticalAlign=middle;resizable=0;points=[];autosize=1;strokeColor=none;fillColor=none;" vertex="1" parent="omD_EAOpqNVqfxOUHVzq-127">
          <mxGeometry x="5" y="250" width="110" height="30" as="geometry" />
        </mxCell>
        <mxCell id="omD_EAOpqNVqfxOUHVzq-128" value="l" style="group" vertex="1" connectable="0" parent="1">
          <mxGeometry x="530" y="-350" width="235" height="220" as="geometry" />
        </mxCell>
        <mxCell id="omD_EAOpqNVqfxOUHVzq-98" value="" style="rounded=0;whiteSpace=wrap;html=1;" vertex="1" parent="omD_EAOpqNVqfxOUHVzq-128">
          <mxGeometry x="5" width="230" height="220" as="geometry" />
        </mxCell>
        <mxCell id="omD_EAOpqNVqfxOUHVzq-99" value="Appointment" style="text;html=1;align=center;verticalAlign=middle;resizable=0;points=[];autosize=1;strokeColor=none;fillColor=none;" vertex="1" parent="omD_EAOpqNVqfxOUHVzq-128">
          <mxGeometry x="75" y="10" width="90" height="30" as="geometry" />
        </mxCell>
        <mxCell id="omD_EAOpqNVqfxOUHVzq-100" value="" style="endArrow=none;html=1;rounded=0;entryX=0.997;entryY=0.228;entryDx=0;entryDy=0;entryPerimeter=0;" edge="1" parent="omD_EAOpqNVqfxOUHVzq-128">
          <mxGeometry width="50" height="50" relative="1" as="geometry">
            <mxPoint x="5.690000000000055" y="50" as="sourcePoint" />
            <mxPoint x="235" y="50.67999999999995" as="targetPoint" />
          </mxGeometry>
        </mxCell>
        <mxCell id="omD_EAOpqNVqfxOUHVzq-101" value="+ aptID : string" style="text;html=1;align=center;verticalAlign=middle;resizable=0;points=[];autosize=1;strokeColor=none;fillColor=none;" vertex="1" parent="omD_EAOpqNVqfxOUHVzq-128">
          <mxGeometry x="5" y="48" width="100" height="30" as="geometry" />
        </mxCell>
        <mxCell id="omD_EAOpqNVqfxOUHVzq-102" value="+ doctorId : string" style="text;html=1;align=center;verticalAlign=middle;resizable=0;points=[];autosize=1;strokeColor=none;fillColor=none;" vertex="1" parent="omD_EAOpqNVqfxOUHVzq-128">
          <mxGeometry x="5" y="70" width="120" height="30" as="geometry" />
        </mxCell>
        <mxCell id="omD_EAOpqNVqfxOUHVzq-103" value="+ patientId : string" style="text;html=1;align=center;verticalAlign=middle;resizable=0;points=[];autosize=1;strokeColor=none;fillColor=none;" vertex="1" parent="omD_EAOpqNVqfxOUHVzq-128">
          <mxGeometry x="5" y="90" width="120" height="30" as="geometry" />
        </mxCell>
        <mxCell id="omD_EAOpqNVqfxOUHVzq-104" value="+ date: date" style="text;html=1;align=center;verticalAlign=middle;resizable=0;points=[];autosize=1;strokeColor=none;fillColor=none;" vertex="1" parent="omD_EAOpqNVqfxOUHVzq-128">
          <mxGeometry y="110" width="90" height="30" as="geometry" />
        </mxCell>
        <mxCell id="omD_EAOpqNVqfxOUHVzq-109" value="" style="endArrow=none;html=1;rounded=0;entryX=0.997;entryY=0.228;entryDx=0;entryDy=0;entryPerimeter=0;" edge="1" parent="omD_EAOpqNVqfxOUHVzq-128">
          <mxGeometry width="50" height="50" relative="1" as="geometry">
            <mxPoint x="5" y="140" as="sourcePoint" />
            <mxPoint x="234.30999999999995" y="140.67999999999995" as="targetPoint" />
          </mxGeometry>
        </mxCell>
        <mxCell id="omD_EAOpqNVqfxOUHVzq-110" value="- book() : &amp;nbsp;void" style="text;html=1;align=center;verticalAlign=middle;resizable=0;points=[];autosize=1;strokeColor=none;fillColor=none;" vertex="1" parent="omD_EAOpqNVqfxOUHVzq-128">
          <mxGeometry x="10" y="140" width="100" height="30" as="geometry" />
        </mxCell>
        <mxCell id="omD_EAOpqNVqfxOUHVzq-113" value="- re-schedule() : &amp;nbsp;void" style="text;html=1;align=center;verticalAlign=middle;resizable=0;points=[];autosize=1;strokeColor=none;fillColor=none;" vertex="1" parent="omD_EAOpqNVqfxOUHVzq-128">
          <mxGeometry x="5" y="160" width="140" height="30" as="geometry" />
        </mxCell>
        <mxCell id="omD_EAOpqNVqfxOUHVzq-114" value="- cancel() : &amp;nbsp;void" style="text;html=1;align=center;verticalAlign=middle;resizable=0;points=[];autosize=1;strokeColor=none;fillColor=none;" vertex="1" parent="omD_EAOpqNVqfxOUHVzq-128">
          <mxGeometry x="5" y="180" width="110" height="30" as="geometry" />
        </mxCell>
        <mxCell id="omD_EAOpqNVqfxOUHVzq-130" value="" style="endArrow=none;html=1;rounded=0;endFill=0;" edge="1" parent="1">
          <mxGeometry width="50" height="50" relative="1" as="geometry">
            <mxPoint x="637.5" y="610" as="sourcePoint" />
            <mxPoint x="417.5" y="610" as="targetPoint" />
          </mxGeometry>
        </mxCell>
        <mxCell id="omD_EAOpqNVqfxOUHVzq-131" value="" style="endArrow=none;html=1;rounded=0;endFill=0;" edge="1" parent="1">
          <mxGeometry width="50" height="50" relative="1" as="geometry">
            <mxPoint x="870" y="610" as="sourcePoint" />
            <mxPoint x="650" y="610" as="targetPoint" />
          </mxGeometry>
        </mxCell>
        <mxCell id="omD_EAOpqNVqfxOUHVzq-132" value="" style="endArrow=classic;html=1;rounded=0;entryX=0.436;entryY=1.011;entryDx=0;entryDy=0;endFill=1;entryPerimeter=0;" edge="1" parent="1" target="omD_EAOpqNVqfxOUHVzq-19">
          <mxGeometry width="50" height="50" relative="1" as="geometry">
            <mxPoint x="420" y="610" as="sourcePoint" />
            <mxPoint x="485" y="290" as="targetPoint" />
          </mxGeometry>
        </mxCell>
        <mxCell id="omD_EAOpqNVqfxOUHVzq-133" value="" style="endArrow=classic;html=1;rounded=0;endFill=1;" edge="1" parent="1">
          <mxGeometry width="50" height="50" relative="1" as="geometry">
            <mxPoint x="870" y="610" as="sourcePoint" />
            <mxPoint x="873" y="260" as="targetPoint" />
          </mxGeometry>
        </mxCell>
        <mxCell id="omD_EAOpqNVqfxOUHVzq-135" value="" style="endArrow=diamond;html=1;rounded=0;entryX=0.5;entryY=1;entryDx=0;entryDy=0;endFill=0;exitX=0.5;exitY=0;exitDx=0;exitDy=0;" edge="1" parent="1" source="omD_EAOpqNVqfxOUHVzq-115" target="omD_EAOpqNVqfxOUHVzq-98">
          <mxGeometry width="50" height="50" relative="1" as="geometry">
            <mxPoint x="650" y="350" as="sourcePoint" />
            <mxPoint x="810" y="-20" as="targetPoint" />
          </mxGeometry>
        </mxCell>
        <mxCell id="omD_EAOpqNVqfxOUHVzq-136" value="" style="group" vertex="1" connectable="0" parent="1">
          <mxGeometry x="530" y="-630" width="235" height="190" as="geometry" />
        </mxCell>
        <mxCell id="omD_EAOpqNVqfxOUHVzq-38" value="" style="rounded=0;whiteSpace=wrap;html=1;" vertex="1" parent="omD_EAOpqNVqfxOUHVzq-136">
          <mxGeometry x="5" width="230" height="190" as="geometry" />
        </mxCell>
        <mxCell id="omD_EAOpqNVqfxOUHVzq-39" value="PatientRecord" style="text;html=1;align=center;verticalAlign=middle;resizable=0;points=[];autosize=1;strokeColor=none;fillColor=none;" vertex="1" parent="omD_EAOpqNVqfxOUHVzq-136">
          <mxGeometry x="70" y="10" width="100" height="30" as="geometry" />
        </mxCell>
        <mxCell id="omD_EAOpqNVqfxOUHVzq-40" value="" style="endArrow=none;html=1;rounded=0;entryX=0.997;entryY=0.228;entryDx=0;entryDy=0;entryPerimeter=0;" edge="1" parent="omD_EAOpqNVqfxOUHVzq-136">
          <mxGeometry width="50" height="50" relative="1" as="geometry">
            <mxPoint x="5.689999999999998" y="50" as="sourcePoint" />
            <mxPoint x="235" y="50.67999999999995" as="targetPoint" />
          </mxGeometry>
        </mxCell>
        <mxCell id="omD_EAOpqNVqfxOUHVzq-41" value="+ PRecID : string" style="text;html=1;align=center;verticalAlign=middle;resizable=0;points=[];autosize=1;strokeColor=none;fillColor=none;" vertex="1" parent="omD_EAOpqNVqfxOUHVzq-136">
          <mxGeometry x="5" y="50" width="110" height="30" as="geometry" />
        </mxCell>
        <mxCell id="omD_EAOpqNVqfxOUHVzq-42" value="+ patientId : string" style="text;html=1;align=center;verticalAlign=middle;resizable=0;points=[];autosize=1;strokeColor=none;fillColor=none;" vertex="1" parent="omD_EAOpqNVqfxOUHVzq-136">
          <mxGeometry x="5" y="70" width="120" height="30" as="geometry" />
        </mxCell>
        <mxCell id="omD_EAOpqNVqfxOUHVzq-43" value="+ docID: string" style="text;html=1;align=center;verticalAlign=middle;resizable=0;points=[];autosize=1;strokeColor=none;fillColor=none;" vertex="1" parent="omD_EAOpqNVqfxOUHVzq-136">
          <mxGeometry x="5" y="90" width="100" height="30" as="geometry" />
        </mxCell>
        <mxCell id="omD_EAOpqNVqfxOUHVzq-49" value="" style="endArrow=none;html=1;rounded=0;entryX=0.997;entryY=0.228;entryDx=0;entryDy=0;entryPerimeter=0;" edge="1" parent="omD_EAOpqNVqfxOUHVzq-136">
          <mxGeometry width="50" height="50" relative="1" as="geometry">
            <mxPoint x="5" y="132.32" as="sourcePoint" />
            <mxPoint x="234.30999999999995" y="132.99999999999994" as="targetPoint" />
          </mxGeometry>
        </mxCell>
        <mxCell id="omD_EAOpqNVqfxOUHVzq-52" value="- createRecord() : &amp;nbsp;void" style="text;html=1;align=center;verticalAlign=middle;resizable=0;points=[];autosize=1;strokeColor=none;fillColor=none;" vertex="1" parent="omD_EAOpqNVqfxOUHVzq-136">
          <mxGeometry y="140" width="150" height="30" as="geometry" />
        </mxCell>
        <mxCell id="omD_EAOpqNVqfxOUHVzq-56" value="- updateRecord() : &amp;nbsp;void" style="text;html=1;align=center;verticalAlign=middle;resizable=0;points=[];autosize=1;strokeColor=none;fillColor=none;" vertex="1" parent="omD_EAOpqNVqfxOUHVzq-136">
          <mxGeometry y="160" width="150" height="30" as="geometry" />
        </mxCell>
        <mxCell id="omD_EAOpqNVqfxOUHVzq-138" value="" style="endArrow=diamond;html=1;rounded=0;endFill=0;" edge="1" parent="1">
          <mxGeometry width="50" height="50" relative="1" as="geometry">
            <mxPoint x="645" y="-400" as="sourcePoint" />
            <mxPoint x="645" y="-438" as="targetPoint" />
          </mxGeometry>
        </mxCell>
        <mxCell id="omD_EAOpqNVqfxOUHVzq-139" value="" style="endArrow=none;html=1;rounded=0;endFill=0;" edge="1" parent="1">
          <mxGeometry width="50" height="50" relative="1" as="geometry">
            <mxPoint x="420" y="-400" as="sourcePoint" />
            <mxPoint x="650" y="-400" as="targetPoint" />
          </mxGeometry>
        </mxCell>
        <mxCell id="omD_EAOpqNVqfxOUHVzq-140" value="" style="endArrow=none;html=1;rounded=0;endFill=0;" edge="1" parent="1">
          <mxGeometry width="50" height="50" relative="1" as="geometry">
            <mxPoint x="850" y="-400" as="sourcePoint" />
            <mxPoint x="640" y="-400" as="targetPoint" />
          </mxGeometry>
        </mxCell>
        <mxCell id="omD_EAOpqNVqfxOUHVzq-141" value="" style="endArrow=none;html=1;rounded=0;exitX=0.42;exitY=-0.003;exitDx=0;exitDy=0;exitPerimeter=0;" edge="1" parent="1" source="omD_EAOpqNVqfxOUHVzq-19">
          <mxGeometry width="50" height="50" relative="1" as="geometry">
            <mxPoint x="500" y="-320" as="sourcePoint" />
            <mxPoint x="420" y="-400" as="targetPoint" />
          </mxGeometry>
        </mxCell>
        <mxCell id="omD_EAOpqNVqfxOUHVzq-142" value="" style="endArrow=none;html=1;rounded=0;exitX=0.42;exitY=-0.003;exitDx=0;exitDy=0;exitPerimeter=0;" edge="1" parent="1">
          <mxGeometry width="50" height="50" relative="1" as="geometry">
            <mxPoint x="850" y="-74.5" as="sourcePoint" />
            <mxPoint x="851" y="-403.5" as="targetPoint" />
          </mxGeometry>
        </mxCell>
        <mxCell id="omD_EAOpqNVqfxOUHVzq-143" value="" style="group" vertex="1" connectable="0" parent="1">
          <mxGeometry x="530" y="750" width="235" height="290" as="geometry" />
        </mxCell>
        <mxCell id="omD_EAOpqNVqfxOUHVzq-81" value="" style="rounded=0;whiteSpace=wrap;html=1;" vertex="1" parent="omD_EAOpqNVqfxOUHVzq-143">
          <mxGeometry x="5" width="230" height="290" as="geometry" />
        </mxCell>
        <mxCell id="omD_EAOpqNVqfxOUHVzq-82" value="Prescription" style="text;html=1;align=center;verticalAlign=middle;resizable=0;points=[];autosize=1;strokeColor=none;fillColor=none;" vertex="1" parent="omD_EAOpqNVqfxOUHVzq-143">
          <mxGeometry x="75" y="10" width="90" height="30" as="geometry" />
        </mxCell>
        <mxCell id="omD_EAOpqNVqfxOUHVzq-83" value="" style="endArrow=none;html=1;rounded=0;entryX=0.997;entryY=0.228;entryDx=0;entryDy=0;entryPerimeter=0;" edge="1" parent="omD_EAOpqNVqfxOUHVzq-143">
          <mxGeometry width="50" height="50" relative="1" as="geometry">
            <mxPoint x="5.689999999999998" y="50" as="sourcePoint" />
            <mxPoint x="235" y="50.67999999999995" as="targetPoint" />
          </mxGeometry>
        </mxCell>
        <mxCell id="omD_EAOpqNVqfxOUHVzq-84" value="+ pscrID : string" style="text;html=1;align=center;verticalAlign=middle;resizable=0;points=[];autosize=1;strokeColor=none;fillColor=none;" vertex="1" parent="omD_EAOpqNVqfxOUHVzq-143">
          <mxGeometry x="5" y="48" width="110" height="30" as="geometry" />
        </mxCell>
        <mxCell id="omD_EAOpqNVqfxOUHVzq-85" value="+ docID : string" style="text;html=1;align=center;verticalAlign=middle;resizable=0;points=[];autosize=1;strokeColor=none;fillColor=none;" vertex="1" parent="omD_EAOpqNVqfxOUHVzq-143">
          <mxGeometry x="15" y="70" width="100" height="30" as="geometry" />
        </mxCell>
        <mxCell id="omD_EAOpqNVqfxOUHVzq-86" value="+ patientId : string" style="text;html=1;align=center;verticalAlign=middle;resizable=0;points=[];autosize=1;strokeColor=none;fillColor=none;" vertex="1" parent="omD_EAOpqNVqfxOUHVzq-143">
          <mxGeometry x="5" y="90" width="120" height="30" as="geometry" />
        </mxCell>
        <mxCell id="omD_EAOpqNVqfxOUHVzq-87" value="+ date: date" style="text;html=1;align=center;verticalAlign=middle;resizable=0;points=[];autosize=1;strokeColor=none;fillColor=none;" vertex="1" parent="omD_EAOpqNVqfxOUHVzq-143">
          <mxGeometry y="110" width="90" height="30" as="geometry" />
        </mxCell>
        <mxCell id="omD_EAOpqNVqfxOUHVzq-88" value="+ medicines: string" style="text;html=1;align=center;verticalAlign=middle;resizable=0;points=[];autosize=1;strokeColor=none;fillColor=none;" vertex="1" parent="omD_EAOpqNVqfxOUHVzq-143">
          <mxGeometry x="5" y="130" width="120" height="30" as="geometry" />
        </mxCell>
        <mxCell id="omD_EAOpqNVqfxOUHVzq-89" value="+ hospitalAddress: string" style="text;html=1;align=center;verticalAlign=middle;resizable=0;points=[];autosize=1;strokeColor=none;fillColor=none;" vertex="1" parent="omD_EAOpqNVqfxOUHVzq-143">
          <mxGeometry y="150" width="160" height="30" as="geometry" />
        </mxCell>
        <mxCell id="omD_EAOpqNVqfxOUHVzq-90" value="+ hospitalPhone: string" style="text;html=1;align=center;verticalAlign=middle;resizable=0;points=[];autosize=1;strokeColor=none;fillColor=none;" vertex="1" parent="omD_EAOpqNVqfxOUHVzq-143">
          <mxGeometry y="170" width="150" height="30" as="geometry" />
        </mxCell>
        <mxCell id="omD_EAOpqNVqfxOUHVzq-91" value="+ DocSign: string" style="text;html=1;align=center;verticalAlign=middle;resizable=0;points=[];autosize=1;strokeColor=none;fillColor=none;" vertex="1" parent="omD_EAOpqNVqfxOUHVzq-143">
          <mxGeometry y="190" width="120" height="30" as="geometry" />
        </mxCell>
        <mxCell id="omD_EAOpqNVqfxOUHVzq-92" value="" style="endArrow=none;html=1;rounded=0;entryX=0.997;entryY=0.228;entryDx=0;entryDy=0;entryPerimeter=0;" edge="1" parent="omD_EAOpqNVqfxOUHVzq-143">
          <mxGeometry width="50" height="50" relative="1" as="geometry">
            <mxPoint x="5" y="250" as="sourcePoint" />
            <mxPoint x="234.30999999999995" y="250.67999999999995" as="targetPoint" />
          </mxGeometry>
        </mxCell>
        <mxCell id="omD_EAOpqNVqfxOUHVzq-93" value="- createPrescription() : &amp;nbsp;string" style="text;html=1;align=center;verticalAlign=middle;resizable=0;points=[];autosize=1;strokeColor=none;fillColor=none;" vertex="1" parent="omD_EAOpqNVqfxOUHVzq-143">
          <mxGeometry y="250" width="180" height="30" as="geometry" />
        </mxCell>
        <mxCell id="omD_EAOpqNVqfxOUHVzq-95" value="+ medicinePrice: string" style="text;html=1;align=center;verticalAlign=middle;resizable=0;points=[];autosize=1;strokeColor=none;fillColor=none;" vertex="1" parent="omD_EAOpqNVqfxOUHVzq-143">
          <mxGeometry y="210" width="150" height="30" as="geometry" />
        </mxCell>
        <mxCell id="omD_EAOpqNVqfxOUHVzq-144" value="" style="endArrow=none;html=1;rounded=0;entryX=0.215;entryY=1.003;entryDx=0;entryDy=0;entryPerimeter=0;" edge="1" parent="1" target="omD_EAOpqNVqfxOUHVzq-19">
          <mxGeometry width="50" height="50" relative="1" as="geometry">
            <mxPoint x="372" y="690" as="sourcePoint" />
            <mxPoint x="550" y="360" as="targetPoint" />
          </mxGeometry>
        </mxCell>
        <mxCell id="omD_EAOpqNVqfxOUHVzq-145" value="" style="endArrow=none;html=1;rounded=0;entryX=0.215;entryY=1.003;entryDx=0;entryDy=0;entryPerimeter=0;" edge="1" parent="1">
          <mxGeometry width="50" height="50" relative="1" as="geometry">
            <mxPoint x="920" y="709" as="sourcePoint" />
            <mxPoint x="920" y="260" as="targetPoint" />
          </mxGeometry>
        </mxCell>
        <mxCell id="omD_EAOpqNVqfxOUHVzq-147" value="" style="endArrow=none;html=1;rounded=0;exitX=0.461;exitY=-0.007;exitDx=0;exitDy=0;exitPerimeter=0;endFill=0;startArrow=diamondThin;startFill=0;" edge="1" parent="1">
          <mxGeometry width="50" height="50" relative="1" as="geometry">
            <mxPoint x="720.0299999999997" y="749.9999999999998" as="sourcePoint" />
            <mxPoint x="720" y="710" as="targetPoint" />
          </mxGeometry>
        </mxCell>
        <mxCell id="omD_EAOpqNVqfxOUHVzq-148" value="" style="group" vertex="1" connectable="0" parent="1">
          <mxGeometry x="60" y="390" width="235" height="260" as="geometry" />
        </mxCell>
        <mxCell id="omD_EAOpqNVqfxOUHVzq-57" value="" style="rounded=0;whiteSpace=wrap;html=1;" vertex="1" parent="omD_EAOpqNVqfxOUHVzq-148">
          <mxGeometry x="5" width="230" height="260" as="geometry" />
        </mxCell>
        <mxCell id="omD_EAOpqNVqfxOUHVzq-58" value="MedicalRecord" style="text;html=1;align=center;verticalAlign=middle;resizable=0;points=[];autosize=1;strokeColor=none;fillColor=none;" vertex="1" parent="omD_EAOpqNVqfxOUHVzq-148">
          <mxGeometry x="70" y="10" width="100" height="30" as="geometry" />
        </mxCell>
        <mxCell id="omD_EAOpqNVqfxOUHVzq-59" value="" style="endArrow=none;html=1;rounded=0;entryX=0.997;entryY=0.228;entryDx=0;entryDy=0;entryPerimeter=0;" edge="1" parent="omD_EAOpqNVqfxOUHVzq-148">
          <mxGeometry width="50" height="50" relative="1" as="geometry">
            <mxPoint x="5.689999999999998" y="50" as="sourcePoint" />
            <mxPoint x="235" y="50.67999999999995" as="targetPoint" />
          </mxGeometry>
        </mxCell>
        <mxCell id="omD_EAOpqNVqfxOUHVzq-60" value="+ MRecID : string" style="text;html=1;align=center;verticalAlign=middle;resizable=0;points=[];autosize=1;strokeColor=none;fillColor=none;" vertex="1" parent="omD_EAOpqNVqfxOUHVzq-148">
          <mxGeometry y="50" width="120" height="30" as="geometry" />
        </mxCell>
        <mxCell id="omD_EAOpqNVqfxOUHVzq-61" value="+ patientId : string" style="text;html=1;align=center;verticalAlign=middle;resizable=0;points=[];autosize=1;strokeColor=none;fillColor=none;" vertex="1" parent="omD_EAOpqNVqfxOUHVzq-148">
          <mxGeometry x="5" y="70" width="120" height="30" as="geometry" />
        </mxCell>
        <mxCell id="omD_EAOpqNVqfxOUHVzq-62" value="+ diseaseId: string" style="text;html=1;align=center;verticalAlign=middle;resizable=0;points=[];autosize=1;strokeColor=none;fillColor=none;" vertex="1" parent="omD_EAOpqNVqfxOUHVzq-148">
          <mxGeometry x="5" y="90" width="120" height="30" as="geometry" />
        </mxCell>
        <mxCell id="omD_EAOpqNVqfxOUHVzq-63" value="" style="endArrow=none;html=1;rounded=0;entryX=0.997;entryY=0.228;entryDx=0;entryDy=0;entryPerimeter=0;" edge="1" parent="omD_EAOpqNVqfxOUHVzq-148">
          <mxGeometry width="50" height="50" relative="1" as="geometry">
            <mxPoint x="5" y="184.65999999999985" as="sourcePoint" />
            <mxPoint x="234.30999999999995" y="185.33999999999992" as="targetPoint" />
          </mxGeometry>
        </mxCell>
        <mxCell id="omD_EAOpqNVqfxOUHVzq-64" value="- createRecord() : &amp;nbsp;void" style="text;html=1;align=center;verticalAlign=middle;resizable=0;points=[];autosize=1;strokeColor=none;fillColor=none;" vertex="1" parent="omD_EAOpqNVqfxOUHVzq-148">
          <mxGeometry y="190" width="150" height="30" as="geometry" />
        </mxCell>
        <mxCell id="omD_EAOpqNVqfxOUHVzq-65" value="- updateRecord() : &amp;nbsp;void" style="text;html=1;align=center;verticalAlign=middle;resizable=0;points=[];autosize=1;strokeColor=none;fillColor=none;" vertex="1" parent="omD_EAOpqNVqfxOUHVzq-148">
          <mxGeometry y="220" width="150" height="30" as="geometry" />
        </mxCell>
        <mxCell id="omD_EAOpqNVqfxOUHVzq-78" value="+ startDate: string" style="text;html=1;align=center;verticalAlign=middle;resizable=0;points=[];autosize=1;strokeColor=none;fillColor=none;" vertex="1" parent="omD_EAOpqNVqfxOUHVzq-148">
          <mxGeometry x="5" y="110" width="120" height="30" as="geometry" />
        </mxCell>
        <mxCell id="omD_EAOpqNVqfxOUHVzq-79" value="+ dischargeDate: string" style="text;html=1;align=center;verticalAlign=middle;resizable=0;points=[];autosize=1;strokeColor=none;fillColor=none;" vertex="1" parent="omD_EAOpqNVqfxOUHVzq-148">
          <mxGeometry y="130" width="150" height="30" as="geometry" />
        </mxCell>
        <mxCell id="omD_EAOpqNVqfxOUHVzq-80" value="+ patientRecordId: string" style="text;html=1;align=center;verticalAlign=middle;resizable=0;points=[];autosize=1;strokeColor=none;fillColor=none;" vertex="1" parent="omD_EAOpqNVqfxOUHVzq-148">
          <mxGeometry x="5" y="150" width="150" height="30" as="geometry" />
        </mxCell>
        <mxCell id="omD_EAOpqNVqfxOUHVzq-153" value="1.." style="text;html=1;align=center;verticalAlign=middle;whiteSpace=wrap;rounded=0;" vertex="1" parent="1">
          <mxGeometry x="352.5" y="-100" width="60" height="30" as="geometry" />
        </mxCell>
        <mxCell id="omD_EAOpqNVqfxOUHVzq-154" value="n.." style="text;html=1;align=center;verticalAlign=middle;whiteSpace=wrap;rounded=0;" vertex="1" parent="1">
          <mxGeometry x="585" y="-428" width="60" height="30" as="geometry" />
        </mxCell>
        <mxCell id="omD_EAOpqNVqfxOUHVzq-155" value="1.." style="text;html=1;align=center;verticalAlign=middle;whiteSpace=wrap;rounded=0;" vertex="1" parent="1">
          <mxGeometry x="790" y="-100" width="60" height="30" as="geometry" />
        </mxCell>
        <mxCell id="omD_EAOpqNVqfxOUHVzq-156" value="1.." style="text;html=1;align=center;verticalAlign=middle;whiteSpace=wrap;rounded=0;" vertex="1" parent="1">
          <mxGeometry x="585" y="380" width="60" height="30" as="geometry" />
        </mxCell>
        <mxCell id="omD_EAOpqNVqfxOUHVzq-157" value="n.." style="text;html=1;align=center;verticalAlign=middle;whiteSpace=wrap;rounded=0;" vertex="1" parent="1">
          <mxGeometry x="585" y="-120" width="60" height="30" as="geometry" />
        </mxCell>
        <mxCell id="omD_EAOpqNVqfxOUHVzq-158" value="n.." style="text;html=1;align=center;verticalAlign=middle;whiteSpace=wrap;rounded=0;" vertex="1" parent="1">
          <mxGeometry x="437.5" y="250" width="60" height="30" as="geometry" />
        </mxCell>
        <mxCell id="omD_EAOpqNVqfxOUHVzq-159" value="n.." style="text;html=1;align=center;verticalAlign=middle;whiteSpace=wrap;rounded=0;" vertex="1" parent="1">
          <mxGeometry x="820" y="260" width="60" height="30" as="geometry" />
        </mxCell>
        <mxCell id="omD_EAOpqNVqfxOUHVzq-160" value="n.." style="text;html=1;align=center;verticalAlign=middle;whiteSpace=wrap;rounded=0;" vertex="1" parent="1">
          <mxGeometry x="320" y="250" width="60" height="30" as="geometry" />
        </mxCell>
        <mxCell id="omD_EAOpqNVqfxOUHVzq-161" value="n.." style="text;html=1;align=center;verticalAlign=middle;whiteSpace=wrap;rounded=0;" vertex="1" parent="1">
          <mxGeometry x="930" y="260" width="60" height="30" as="geometry" />
        </mxCell>
        <mxCell id="omD_EAOpqNVqfxOUHVzq-162" value="n.." style="text;html=1;align=center;verticalAlign=middle;whiteSpace=wrap;rounded=0;" vertex="1" parent="1">
          <mxGeometry x="580" y="720" width="60" height="30" as="geometry" />
        </mxCell>
        <mxCell id="omD_EAOpqNVqfxOUHVzq-163" value="1.." style="text;html=1;align=center;verticalAlign=middle;whiteSpace=wrap;rounded=0;" vertex="1" parent="1">
          <mxGeometry x="257.5" y="55" width="60" height="30" as="geometry" />
        </mxCell>
        <mxCell id="omD_EAOpqNVqfxOUHVzq-164" value="n.." style="text;html=1;align=center;verticalAlign=middle;whiteSpace=wrap;rounded=0;" vertex="1" parent="1">
          <mxGeometry x="292.5" y="440" width="60" height="30" as="geometry" />
        </mxCell>
        <mxCell id="omD_EAOpqNVqfxOUHVzq-167" value="manages" style="text;html=1;align=center;verticalAlign=middle;resizable=0;points=[];autosize=1;strokeColor=none;fillColor=none;rotation=-90;" vertex="1" parent="1">
          <mxGeometry x="605" y="68" width="70" height="30" as="geometry" />
        </mxCell>
        <mxCell id="omD_EAOpqNVqfxOUHVzq-168" value="" style="endArrow=none;html=1;rounded=0;" edge="1" parent="1">
          <mxGeometry width="50" height="50" relative="1" as="geometry">
            <mxPoint x="640" y="610" as="sourcePoint" />
            <mxPoint x="640" y="550" as="targetPoint" />
          </mxGeometry>
        </mxCell>
        <mxCell id="omD_EAOpqNVqfxOUHVzq-169" value="" style="endArrow=none;html=1;rounded=0;" edge="1" parent="1">
          <mxGeometry width="50" height="50" relative="1" as="geometry">
            <mxPoint x="649.58" y="610" as="sourcePoint" />
            <mxPoint x="649.58" y="550" as="targetPoint" />
          </mxGeometry>
        </mxCell>
        <mxCell id="omD_EAOpqNVqfxOUHVzq-170" value="" style="endArrow=none;html=1;rounded=0;" edge="1" parent="1">
          <mxGeometry width="50" height="50" relative="1" as="geometry">
            <mxPoint x="720" y="710" as="sourcePoint" />
            <mxPoint x="920" y="710" as="targetPoint" />
          </mxGeometry>
        </mxCell>
        <mxCell id="omD_EAOpqNVqfxOUHVzq-171" value="" style="endArrow=none;html=1;rounded=0;" edge="1" parent="1">
          <mxGeometry width="50" height="50" relative="1" as="geometry">
            <mxPoint x="640" y="690" as="sourcePoint" />
            <mxPoint x="375" y="690" as="targetPoint" />
          </mxGeometry>
        </mxCell>
        <mxCell id="omD_EAOpqNVqfxOUHVzq-172" value="" style="endArrow=classic;html=1;rounded=0;entryX=1;entryY=0.75;entryDx=0;entryDy=0;" edge="1" parent="1" target="omD_EAOpqNVqfxOUHVzq-162">
          <mxGeometry width="50" height="50" relative="1" as="geometry">
            <mxPoint x="640" y="690" as="sourcePoint" />
            <mxPoint x="690" y="580" as="targetPoint" />
          </mxGeometry>
        </mxCell>
        <mxCell id="omD_EAOpqNVqfxOUHVzq-173" value="manages" style="text;html=1;align=center;verticalAlign=middle;resizable=0;points=[];autosize=1;strokeColor=none;fillColor=none;rotation=-90;" vertex="1" parent="1">
          <mxGeometry x="397.5" y="290" width="70" height="30" as="geometry" />
        </mxCell>
        <mxCell id="omD_EAOpqNVqfxOUHVzq-174" value="manages" style="text;html=1;align=center;verticalAlign=middle;resizable=0;points=[];autosize=1;strokeColor=none;fillColor=none;rotation=-90;" vertex="1" parent="1">
          <mxGeometry x="820" y="300" width="70" height="30" as="geometry" />
        </mxCell>
        <mxCell id="omD_EAOpqNVqfxOUHVzq-175" value="writes" style="text;html=1;align=center;verticalAlign=middle;resizable=0;points=[];autosize=1;strokeColor=none;fillColor=none;rotation=0;" vertex="1" parent="1">
          <mxGeometry x="775" y="680" width="50" height="30" as="geometry" />
        </mxCell>
        <mxCell id="omD_EAOpqNVqfxOUHVzq-176" value="reads" style="text;html=1;align=center;verticalAlign=middle;resizable=0;points=[];autosize=1;strokeColor=none;fillColor=none;rotation=0;" vertex="1" parent="1">
          <mxGeometry x="525" y="690" width="50" height="30" as="geometry" />
        </mxCell>
        <mxCell id="omD_EAOpqNVqfxOUHVzq-177" value="" style="endArrow=none;html=1;rounded=0;" edge="1" parent="1">
          <mxGeometry width="50" height="50" relative="1" as="geometry">
            <mxPoint x="295" y="505" as="sourcePoint" />
            <mxPoint x="360" y="505" as="targetPoint" />
          </mxGeometry>
        </mxCell>
        <mxCell id="omD_EAOpqNVqfxOUHVzq-178" value="" style="endArrow=none;html=1;rounded=0;curved=1;" edge="1" parent="1">
          <mxGeometry width="50" height="50" relative="1" as="geometry">
            <mxPoint x="358.75" y="505" as="sourcePoint" />
            <mxPoint x="376.25" y="505" as="targetPoint" />
            <Array as="points">
              <mxPoint x="368.75" y="465" />
            </Array>
          </mxGeometry>
        </mxCell>
        <mxCell id="omD_EAOpqNVqfxOUHVzq-179" value="" style="endArrow=none;html=1;rounded=0;" edge="1" parent="1">
          <mxGeometry width="50" height="50" relative="1" as="geometry">
            <mxPoint x="377.5" y="505" as="sourcePoint" />
            <mxPoint x="410" y="505" as="targetPoint" />
          </mxGeometry>
        </mxCell>
        <mxCell id="omD_EAOpqNVqfxOUHVzq-180" value="" style="endArrow=none;html=1;rounded=0;curved=1;" edge="1" parent="1">
          <mxGeometry width="50" height="50" relative="1" as="geometry">
            <mxPoint x="410" y="505" as="sourcePoint" />
            <mxPoint x="427.5" y="505" as="targetPoint" />
            <Array as="points">
              <mxPoint x="420" y="465" />
            </Array>
          </mxGeometry>
        </mxCell>
        <mxCell id="omD_EAOpqNVqfxOUHVzq-181" value="" style="endArrow=none;html=1;rounded=0;entryX=0.029;entryY=-0.006;entryDx=0;entryDy=0;entryPerimeter=0;" edge="1" parent="1" target="omD_EAOpqNVqfxOUHVzq-123">
          <mxGeometry width="50" height="50" relative="1" as="geometry">
            <mxPoint x="427.5" y="505" as="sourcePoint" />
            <mxPoint x="460" y="505" as="targetPoint" />
          </mxGeometry>
        </mxCell>
        <mxCell id="omD_EAOpqNVqfxOUHVzq-182" value="manages" style="text;html=1;align=center;verticalAlign=middle;resizable=0;points=[];autosize=1;strokeColor=none;fillColor=none;rotation=0;" vertex="1" parent="1">
          <mxGeometry x="450" y="480" width="70" height="30" as="geometry" />
        </mxCell>
      </root>
    </mxGraphModel>
  </diagram>
</mxfile>
